{"title":"Gallows {2015} LAT HDCAM X264 AC3-MRG","uid":12194401,"size":641059802,"categoryP":"video","categoryS":"movies","magnet":"?xt=urn:btih:bf343a154ff0eac36db3e4bd330d7092357b7595&amp;dn=Gallows+%7B2015%7D+LAT+HDCAM+X264+AC3-MRG&amp;tr=udp%3A%2F%2Ftracker.openbittorrent.com%3A80&amp;tr=udp%3A%2F%2Fopen.demonii.com%3A1337&amp;tr=udp%3A%2F%2Ftracker.coppersurfer.tk%3A6969&amp;tr=udp%3A%2F%2Fexodus.desync.com%3A6969","seeders":3,"leechers":5,"uploader":"SaM","files":5,"time":1438711358,"description":"Gallows {2015} LAT HDCAM X264 AC3-MRG.mkv\n\nnfo ..will have english released by tonight..hold tight....:)\n\nFormat : Matroska\nFormat version : Version 4 / Version 2\nFile size : 611 MiB\nDuration : 1h 12mn\nOverall bit rate : 1 185 Kbps\n\nVideo\nID : 1\nFormat : AVC\nFormat/Info : Advanced Video Codec\nFormat profile : &lt;a class=&quot;__cf_email__&quot; href=&quot;/cdn-cgi/l/email-protection&quot; data-cfemail=&quot;642c0d030c2428574a55&quot;&gt;[email&amp;#160;protected]&lt;/a&gt;&lt;script data-cfhash='f9e31' type=&quot;text/javascript&quot;&gt;\n/* &lt;![CDATA[ */!function(){try{var t=&quot;currentScript&quot;in document?document.currentScript:function(){for(var t=document.getElementsByTagName(&quot;script&quot;),e=t.length;e--;)if(t[e].getAttribute(&quot;data-cfhash&quot;))return t[e]}();if(t&amp;&amp;t.previousSibling){var e,r,n,i,c=t.previousSibling,a=c.getAttribute(&quot;data-cfemail&quot;);if(a){for(e=&quot;&quot;,r=parseInt(a.substr(0,2),16),n=2;a.length-n;n+=2)i=parseInt(a.substr(n,2),16)^r,e+=String.fromCharCode(i);e=document.createTextNode(e),c.parentNode.replaceChild(e,c)}t.parentNode.removeChild(t);}}catch(u){}}()/* ]]&gt; */&lt;/script&gt;\nFormat settings, CABAC : Yes\nFormat settings, ReFrames : 4 frames\nCodec ID : V_MPEG4/ISO/AVC\nDuration : 1h 12mn\nBit rate : 1 034 Kbps\nWidth : 960 pixels\nHeight : 540 pixels\nDisplay aspect ratio : 16:9\nFrame rate mode : Constant\nFrame rate : 29.970 fps\nColor space : YUV\nChroma subsampling : 4:2:0\nBit depth : 8 bits\nScan type : Progressive\nBits/(Pixel*Frame) : 0.067\nStream size : 533 MiB (87%)\nWriting library : x264 core\n\nAudio\nID : 2\nFormat : AC-3\nFormat/Info : Audio Coding 3\nMode extension : CM (complete main)\nFormat settings, Endianness : Big\nCodec ID : A_AC3\nDuration : 1h 12mn\nBit rate mode : Constant\nBit rate : 128 Kbps\nChannel(s) : 2 channels\nChannel positions : Front: L R\nSampling rate : 48.0 KHz\nCompression mode : Lossy\nDelay relative to video : 30ms\nStream size : 66.0 MiB (11%)\nLanguage : unknown\nDefault : Yes\n &lt;a href=&quot;\nhttp://extraimago.com/image/Sjx&quot; rel=&quot;nofollow&quot; target=&quot;_NEW&quot;&gt;\nhttp://extraimago.com/image/Sjx&lt;/a&gt;","torrent":{"xt":"urn:btih:bf343a154ff0eac36db3e4bd330d7092357b7595","amp;dn":"Gallows+%7B2015%7D+LAT+HDCAM+X264+AC3-MRG","amp;tr":["udp%3A%2F%2Ftracker.openbittorrent.com%3A80","udp%3A%2F%2Fopen.demonii.com%3A1337","udp%3A%2F%2Ftracker.coppersurfer.tk%3A6969","udp%3A%2F%2Fexodus.desync.com%3A6969"],"infoHash":"bf343a154ff0eac36db3e4bd330d7092357b7595","infoHashBuffer":{"type":"Buffer","data":[191,52,58,21,79,240,234,195,109,179,228,189,51,13,112,146,53,123,117,149]},"announce":[],"urlList":[]}}